<?xml version="1.0" standalone="no"?>
<!DOCTYPE svg PUBLIC "-//W3C//DTD SVG 20010904//EN"
 "http://www.w3.org/TR/2001/REC-SVG-20010904/DTD/svg10.dtd">
<svg version="1.0" xmlns="http://www.w3.org/2000/svg"
 width="1134.000000pt" height="1280.000000pt" viewBox="0 0 1134.000000 1280.000000"
 preserveAspectRatio="xMidYMid meet">
<metadata>
Created by potrace 1.15, written by Peter Selinger 2001-2017
</metadata>
<g transform="translate(0.000000,1280.000000) scale(0.100000,-0.100000)"
fill="#9c27b0" stroke="none">
<path d="M5950 12513 c-582 -37 -1052 -125 -1560 -293 -796 -262 -1504 -668
-2124 -1218 l-79 -70 -53 44 c-124 100 -243 166 -386 211 -75 24 -98 27 -248
27 -147 1 -174 -2 -245 -23 -490 -149 -828 -655 -895 -1341 -22 -222 -23 -319
-6 -455 41 -315 123 -524 299 -760 l60 -80 -26 -135 c-62 -311 -82 -540 -74
-820 19 -654 209 -1173 592 -1618 342 -398 798 -641 1320 -703 126 -15 411
-15 530 0 554 70 1066 318 1565 759 69 60 140 125 158 144 l33 35 -3 114 -3
114 -50 26 c-87 46 -82 48 -196 -42 -341 -267 -630 -396 -964 -429 -299 -30
-608 40 -839 188 -339 218 -622 608 -781 1080 -40 119 -89 311 -81 319 8 8
184 -174 292 -303 191 -228 305 -405 358 -558 25 -69 43 -85 80 -68 17 8 29
24 36 53 18 66 94 203 183 329 220 313 547 648 852 874 491 363 621 470 771
636 153 170 258 347 320 540 58 180 74 293 74 525 -1 535 -153 974 -439 1268
-207 213 -439 317 -706 317 -424 0 -812 -283 -1055 -768 l-57 -114 -49 100
-50 100 50 64 c371 475 910 894 1456 1131 439 191 892 290 1441 317 1087 51
2070 -339 2869 -1140 929 -930 1527 -2164 1765 -3640 141 -880 150 -1881 24
-2720 -167 -1108 -594 -2047 -1233 -2708 -262 -270 -506 -450 -811 -598 -247
-119 -431 -179 -693 -223 -585 -99 -1151 -16 -1909 281 -73 29 -133 55 -133
58 0 3 57 51 128 107 353 278 697 626 939 948 438 585 701 1259 787 2025 38
333 42 796 11 1245 -33 474 -62 772 -130 1365 -138 1196 -155 1603 -84 2067
79 522 290 994 643 1442 l66 84 0 114 0 114 -62 29 c-35 17 -70 30 -79 30 -26
0 -255 -204 -459 -409 -899 -900 -1349 -1906 -1451 -3236 -28 -367 -13 -818
56 -1670 66 -818 85 -1304 66 -1665 -35 -657 -134 -1095 -340 -1515 -138 -280
-297 -506 -511 -729 l-101 -104 -147 70 c-684 327 -1210 519 -1677 613 -673
135 -1359 77 -1854 -156 -403 -190 -591 -455 -527 -743 29 -128 86 -227 190
-332 319 -320 916 -504 1633 -504 581 0 1233 110 2037 345 l189 55 136 -49
c570 -204 1039 -322 1481 -372 152 -18 536 -15 704 6 684 81 1245 315 1776
739 150 120 451 417 582 576 823 995 1312 2299 1462 3900 36 380 41 512 41
1090 0 598 -5 707 -45 1083 -122 1118 -449 2068 -970 2819 -757 1090 -1831
1692 -3190 1787 -116 8 -577 11 -680 4z m-4263 -1728 c96 -13 236 -54 256 -74
6 -6 -26 -48 -81 -108 -281 -306 -507 -611 -696 -941 -128 -223 -215 -410
-311 -664 l-52 -139 -40 63 c-84 133 -134 269 -159 431 -27 171 -7 428 49 639
85 322 284 582 543 712 118 59 191 77 374 94 8 1 61 -5 117 -13z m2088 -19
c216 -42 363 -122 511 -279 155 -163 246 -356 300 -634 22 -115 26 -166 27
-308 0 -159 -2 -178 -31 -287 -49 -186 -107 -295 -244 -459 -87 -105 -262
-244 -523 -416 -418 -276 -480 -322 -683 -506 -198 -180 -438 -454 -495 -564
-25 -48 -33 -48 -64 4 -106 181 -446 543 -650 693 l-103 75 -2 110 c-16 709
97 1265 364 1800 69 136 167 307 192 333 11 11 21 2 55 -53 24 -37 65 -113 92
-168 27 -56 56 -105 64 -110 27 -15 50 11 102 115 102 203 220 352 371 466
213 159 489 232 717 188z m-1605 -8897 c305 -51 709 -177 1186 -370 146 -59
255 -106 667 -287 32 -14 54 -28 50 -32 -4 -4 -51 -21 -103 -38 -351 -114
-740 -165 -1350 -178 -335 -7 -565 3 -795 37 -352 50 -637 156 -779 288 -151
141 -100 313 133 451 243 143 619 192 991 129z"/>
</g>
</svg>
